<svg xmlns="http://www.w3.org/2000/svg" width="24" height="24" viewBox="0 0 24 24">
    <path fill="#6E6767" fill-rule="nonzero" d="M11.886 2.162c3.172 0 3.552.012 4.806.072 3.218.146 4.722 1.69 4.872 4.918.058 1.264.068 1.646.068 4.848 0 3.208-.012 3.586-.07 4.85-.148 3.224-1.648 4.772-4.872 4.92-1.254.058-1.628.068-4.806.068-3.172 0-3.55-.01-4.802-.07-3.23-.146-4.726-1.698-4.874-4.92-.054-1.264-.066-1.64-.066-4.848 0-3.204.012-3.584.068-4.85.148-3.226 1.65-4.77 4.874-4.918 1.254-.058 1.63-.07 4.802-.07zm0-2.162c-3.228 0-3.632.014-4.9.072C2.67.272.27 2.69.072 7.052.012 8.332 0 8.742 0 12c0 3.26.014 3.668.072 4.95.198 4.356 2.592 6.78 6.914 6.978 1.268.058 1.672.072 4.9.072 3.232 0 3.634-.014 4.904-.072 4.312-.2 6.714-2.618 6.914-6.978.054-1.282.07-1.692.07-4.95 0-3.26-.016-3.666-.07-4.948C23.508 2.7 21.11.272 16.79.072 15.52.016 15.118 0 11.886 0zm0 5.838c-3.368 0-6.104 2.76-6.104 6.162 0 3.404 2.734 6.164 6.104 6.164 3.372 0 6.102-2.76 6.102-6.164s-2.73-6.162-6.102-6.162zm0 10.162a3.98 3.98 0 0 1-3.96-4c0-2.208 1.772-4 3.96-4a3.983 3.983 0 0 1 3.966 3.996V12c0 2.21-1.778 4-3.966 4zM18.23 4.156a1.435 1.435 0 0 0-1.426 1.44c0 .794.64 1.44 1.426 1.44a1.43 1.43 0 0 0 1.426-1.438v-.002a1.428 1.428 0 0 0-1.422-1.44h-.004z"/>
</svg>
